<mxfile host="Electron" modified="2024-11-01T06:54:23.390Z" agent="Mozilla/5.0 (Windows NT 10.0; Win64; x64) AppleWebKit/537.36 (KHTML, like Gecko) draw.io/24.4.13 Chrome/124.0.6367.207 Electron/30.0.6 Safari/537.36" etag="qxLBrfklX0FGMIjFw6BY" version="24.4.13" type="device">
  <diagram name="第 1 页" id="ZNO2rrZlYdeP914PY7Q1">
    <mxGraphModel dx="1116" dy="1014" grid="1" gridSize="10" guides="1" tooltips="1" connect="1" arrows="1" fold="1" page="1" pageScale="1" pageWidth="827" pageHeight="1169" math="0" shadow="0">
      <root>
        <mxCell id="0" />
        <mxCell id="1" parent="0" />
        <mxCell id="OFDN1TU4o0vABBcy8Xcb-4" style="edgeStyle=orthogonalEdgeStyle;rounded=0;orthogonalLoop=1;jettySize=auto;html=1;exitX=0.75;exitY=0;exitDx=0;exitDy=0;entryX=0.75;entryY=1;entryDx=0;entryDy=0;" edge="1" parent="1" source="OFDN1TU4o0vABBcy8Xcb-1" target="OFDN1TU4o0vABBcy8Xcb-2">
          <mxGeometry relative="1" as="geometry" />
        </mxCell>
        <mxCell id="OFDN1TU4o0vABBcy8Xcb-9" style="edgeStyle=orthogonalEdgeStyle;rounded=0;orthogonalLoop=1;jettySize=auto;html=1;exitX=0.25;exitY=1;exitDx=0;exitDy=0;entryX=0.25;entryY=0;entryDx=0;entryDy=0;" edge="1" parent="1" source="OFDN1TU4o0vABBcy8Xcb-1" target="OFDN1TU4o0vABBcy8Xcb-8">
          <mxGeometry relative="1" as="geometry" />
        </mxCell>
        <mxCell id="OFDN1TU4o0vABBcy8Xcb-11" style="edgeStyle=orthogonalEdgeStyle;rounded=0;orthogonalLoop=1;jettySize=auto;html=1;exitX=0;exitY=0.5;exitDx=0;exitDy=0;entryX=0.75;entryY=0;entryDx=0;entryDy=0;" edge="1" parent="1" source="OFDN1TU4o0vABBcy8Xcb-1" target="OFDN1TU4o0vABBcy8Xcb-6">
          <mxGeometry relative="1" as="geometry" />
        </mxCell>
        <mxCell id="OFDN1TU4o0vABBcy8Xcb-13" style="edgeStyle=orthogonalEdgeStyle;rounded=0;orthogonalLoop=1;jettySize=auto;html=1;exitX=1;exitY=0.5;exitDx=0;exitDy=0;entryX=0.5;entryY=0;entryDx=0;entryDy=0;" edge="1" parent="1" source="OFDN1TU4o0vABBcy8Xcb-1" target="OFDN1TU4o0vABBcy8Xcb-7">
          <mxGeometry relative="1" as="geometry" />
        </mxCell>
        <mxCell id="OFDN1TU4o0vABBcy8Xcb-1" value="STM32F103" style="rounded=1;whiteSpace=wrap;html=1;" vertex="1" parent="1">
          <mxGeometry x="320" y="340" width="120" height="60" as="geometry" />
        </mxCell>
        <mxCell id="OFDN1TU4o0vABBcy8Xcb-3" style="edgeStyle=orthogonalEdgeStyle;rounded=0;orthogonalLoop=1;jettySize=auto;html=1;exitX=0.25;exitY=1;exitDx=0;exitDy=0;entryX=0.25;entryY=0;entryDx=0;entryDy=0;" edge="1" parent="1" source="OFDN1TU4o0vABBcy8Xcb-2" target="OFDN1TU4o0vABBcy8Xcb-1">
          <mxGeometry relative="1" as="geometry" />
        </mxCell>
        <mxCell id="OFDN1TU4o0vABBcy8Xcb-2" value="串口屏" style="rounded=1;whiteSpace=wrap;html=1;" vertex="1" parent="1">
          <mxGeometry x="320" y="160" width="120" height="60" as="geometry" />
        </mxCell>
        <mxCell id="OFDN1TU4o0vABBcy8Xcb-5" value="RS485" style="text;html=1;align=center;verticalAlign=middle;whiteSpace=wrap;rounded=0;" vertex="1" parent="1">
          <mxGeometry x="354" y="270" width="60" height="30" as="geometry" />
        </mxCell>
        <mxCell id="OFDN1TU4o0vABBcy8Xcb-12" style="edgeStyle=orthogonalEdgeStyle;rounded=0;orthogonalLoop=1;jettySize=auto;html=1;exitX=0.25;exitY=0;exitDx=0;exitDy=0;entryX=0;entryY=0.5;entryDx=0;entryDy=0;" edge="1" parent="1" source="OFDN1TU4o0vABBcy8Xcb-6" target="OFDN1TU4o0vABBcy8Xcb-1">
          <mxGeometry relative="1" as="geometry" />
        </mxCell>
        <mxCell id="OFDN1TU4o0vABBcy8Xcb-6" value="EEPROM" style="rounded=1;whiteSpace=wrap;html=1;" vertex="1" parent="1">
          <mxGeometry x="120" y="520" width="120" height="60" as="geometry" />
        </mxCell>
        <mxCell id="OFDN1TU4o0vABBcy8Xcb-7" value="电机" style="rounded=1;whiteSpace=wrap;html=1;" vertex="1" parent="1">
          <mxGeometry x="520" y="520" width="120" height="60" as="geometry" />
        </mxCell>
        <mxCell id="OFDN1TU4o0vABBcy8Xcb-10" style="edgeStyle=orthogonalEdgeStyle;rounded=0;orthogonalLoop=1;jettySize=auto;html=1;exitX=0.75;exitY=0;exitDx=0;exitDy=0;entryX=0.75;entryY=1;entryDx=0;entryDy=0;" edge="1" parent="1" source="OFDN1TU4o0vABBcy8Xcb-8" target="OFDN1TU4o0vABBcy8Xcb-1">
          <mxGeometry relative="1" as="geometry" />
        </mxCell>
        <mxCell id="OFDN1TU4o0vABBcy8Xcb-8" value="Flash" style="rounded=1;whiteSpace=wrap;html=1;" vertex="1" parent="1">
          <mxGeometry x="320" y="520" width="120" height="60" as="geometry" />
        </mxCell>
        <mxCell id="OFDN1TU4o0vABBcy8Xcb-14" value="IO使能" style="text;html=1;align=center;verticalAlign=middle;whiteSpace=wrap;rounded=0;" vertex="1" parent="1">
          <mxGeometry x="580" y="430" width="60" height="30" as="geometry" />
        </mxCell>
        <mxCell id="OFDN1TU4o0vABBcy8Xcb-15" value="SPI" style="text;html=1;align=center;verticalAlign=middle;whiteSpace=wrap;rounded=0;" vertex="1" parent="1">
          <mxGeometry x="350" y="430" width="60" height="30" as="geometry" />
        </mxCell>
        <mxCell id="OFDN1TU4o0vABBcy8Xcb-16" value="IIC" style="text;html=1;align=center;verticalAlign=middle;whiteSpace=wrap;rounded=0;" vertex="1" parent="1">
          <mxGeometry x="180" y="330" width="60" height="30" as="geometry" />
        </mxCell>
      </root>
    </mxGraphModel>
  </diagram>
</mxfile>
